<svg xmlns="http://www.w3.org/2000/svg" xmlns:xlink="http://www.w3.org/1999/xlink" width="710" zoomAndPan="magnify" viewBox="0 0 532.5 492.749991" height="657" preserveAspectRatio="xMidYMid meet" version="1.0"><defs><clipPath id="f7ecfdcf54"><path d="M 0 0.105469 L 532 0.105469 L 532 492.394531 L 0 492.394531 Z M 0 0.105469 " clip-rule="nonzero"/></clipPath><clipPath id="d541324915"><path d="M 0 0.105469 L 531 0.105469 L 531 492.378906 L 0 492.378906 Z M 0 0.105469 " clip-rule="nonzero"/></clipPath><clipPath id="5945060793"><path d="M 103 45.277344 L 428 45.277344 L 428 368.972656 L 103 368.972656 Z M 103 45.277344 " clip-rule="nonzero"/></clipPath></defs><g clip-path="url(#f7ecfdcf54)"><path fill="#ffffff" d="M 0 0.105469 L 532 0.105469 L 532 492.394531 L 0 492.394531 Z M 0 0.105469 " fill-opacity="1" fill-rule="nonzero"/></g><g clip-path="url(#d541324915)"><path fill="#dcf1ff" d="M 0 0.105469 L 530.730469 0.105469 L 530.730469 492.378906 L 0 492.378906 Z M 0 0.105469 " fill-opacity="1" fill-rule="nonzero"/></g><g clip-path="url(#5945060793)"><path fill="#5684b9" d="M 377.878906 368.902344 L 326.835938 368.902344 C 315.929688 368.902344 315.929688 352.203125 326.835938 352.203125 L 377.878906 352.203125 C 395.976562 352.203125 410.824219 337.359375 410.824219 319.265625 L 410.824219 268.242188 C 410.824219 257.339844 427.53125 257.339844 427.53125 268.242188 L 427.53125 319.265625 C 427.53125 346.636719 405.257812 368.902344 377.878906 368.902344 Z M 204.328125 368.902344 L 153.519531 368.902344 C 126.140625 368.902344 103.867188 346.636719 103.867188 319.265625 L 103.867188 268.242188 C 103.867188 257.339844 120.570312 257.339844 120.570312 268.242188 L 120.570312 319.265625 C 120.570312 337.359375 135.421875 352.203125 153.519531 352.203125 L 204.328125 352.203125 C 215.464844 352.203125 215.464844 368.902344 204.328125 368.902344 Z M 419.179688 154.128906 C 414.539062 154.128906 410.824219 150.417969 410.824219 145.777344 L 410.824219 94.984375 C 410.824219 76.894531 395.976562 62.046875 377.878906 62.046875 L 326.835938 62.046875 C 315.929688 62.046875 315.929688 45.347656 326.835938 45.347656 L 377.878906 45.347656 C 405.257812 45.347656 427.53125 67.617188 427.53125 94.984375 L 427.53125 145.777344 C 427.53125 150.417969 423.585938 154.128906 419.179688 154.128906 Z M 112.21875 154.128906 C 107.578125 154.128906 103.867188 150.417969 103.867188 145.777344 L 103.867188 94.984375 C 103.867188 67.617188 126.140625 45.347656 153.519531 45.347656 L 204.328125 45.347656 C 215.464844 45.347656 215.464844 62.046875 204.328125 62.046875 L 153.519531 62.046875 C 135.421875 62.046875 120.570312 76.894531 120.570312 94.984375 L 120.570312 145.777344 C 120.570312 150.417969 116.859375 154.128906 112.21875 154.128906 Z M 112.21875 154.128906 " fill-opacity="1" fill-rule="evenodd"/></g><path fill="#d3dae0" d="M 370.453125 320.425781 L 160.941406 320.425781 C 158.390625 320.425781 156.300781 318.570312 156.300781 316.019531 L 156.300781 98.230469 C 156.300781 95.679688 158.390625 93.59375 160.941406 93.59375 L 370.222656 93.59375 C 372.773438 93.59375 374.863281 95.679688 374.863281 98.230469 L 374.863281 316.019531 C 374.863281 318.570312 372.773438 320.425781 370.453125 320.425781 Z M 370.453125 320.425781 " fill-opacity="1" fill-rule="evenodd"/><path fill="#75471a" d="M 333.5625 215.128906 C 330.082031 215.128906 330.082031 212.113281 330.082031 210.023438 L 201.3125 210.023438 L 201.3125 211.648438 C 201.3125 216.054688 194.351562 216.054688 194.351562 211.648438 L 194.351562 193.324219 C 194.351562 153.664062 226.140625 121.65625 267.4375 121.65625 C 288.089844 121.65625 302.707031 136.730469 319.179688 146.242188 C 329.851562 152.273438 336.117188 162.941406 337.042969 176.160156 L 337.042969 211.417969 C 337.042969 213.503906 335.417969 215.128906 333.5625 215.128906 Z M 333.5625 215.128906 " fill-opacity="1" fill-rule="evenodd"/><path fill="#ffb698" d="M 326.835938 241.566406 C 320.800781 241.566406 314.074219 242.960938 314.074219 238.089844 L 314.074219 208.632812 C 314.074219 203.992188 320.800781 205.152344 326.835938 205.152344 C 333.796875 205.152344 339.597656 210.953125 339.597656 217.910156 L 339.597656 228.8125 C 339.597656 236 333.796875 241.566406 326.835938 241.566406 Z M 326.835938 241.566406 " fill-opacity="1" fill-rule="evenodd"/><path fill="#ffb698" d="M 213.84375 241.566406 L 204.5625 241.566406 C 197.367188 241.566406 191.800781 236 191.800781 228.8125 L 191.800781 217.910156 C 191.800781 210.953125 197.367188 205.152344 204.5625 205.152344 C 210.59375 205.152344 217.324219 203.992188 217.324219 208.632812 L 217.324219 238.089844 C 217.324219 240.175781 215.699219 241.566406 213.84375 241.566406 Z M 213.84375 241.566406 " fill-opacity="1" fill-rule="evenodd"/><path fill="#ffc3a1" d="M 267.207031 292.363281 L 264.191406 292.363281 C 234.492188 292.363281 210.363281 268.472656 210.363281 238.785156 L 210.363281 205.617188 C 210.363281 192.628906 221.265625 179.871094 234.492188 182.191406 C 284.609375 190.773438 290.871094 165.722656 296.441406 173.378906 C 308.503906 189.847656 321.035156 185.671875 321.035156 191.933594 L 321.035156 238.785156 C 320.800781 268.472656 296.90625 292.363281 267.207031 292.363281 Z M 267.207031 292.363281 " fill-opacity="1" fill-rule="evenodd"/><path fill="#ff507d" d="M 455.371094 215.359375 L 76.023438 215.359375 C 64.886719 215.359375 64.886719 198.660156 76.023438 198.660156 L 455.371094 198.660156 C 466.507812 198.660156 466.277344 215.359375 455.371094 215.359375 Z M 455.371094 215.359375 " fill-opacity="1" fill-rule="evenodd"/></svg>