<svg xmlns="http://www.w3.org/2000/svg" xmlns:xlink="http://www.w3.org/1999/xlink" width="710" zoomAndPan="magnify" viewBox="0 0 532.5 492.749991" height="657" preserveAspectRatio="xMidYMid meet" version="1.0"><defs><clipPath id="faaa688ce6"><path d="M 0 0.105469 L 532 0.105469 L 532 492.394531 L 0 492.394531 Z M 0 0.105469 " clip-rule="nonzero"/></clipPath><clipPath id="6c704346da"><path d="M 0 0.105469 L 531 0.105469 L 531 492.378906 L 0 492.378906 Z M 0 0.105469 " clip-rule="nonzero"/></clipPath><clipPath id="d44deb4750"><path d="M 56.117188 45.277344 L 474.972656 45.277344 L 474.972656 104 L 56.117188 104 Z M 56.117188 45.277344 " clip-rule="nonzero"/></clipPath><clipPath id="a3f36e1403"><path d="M 56.117188 102 L 474.972656 102 L 474.972656 368.972656 L 56.117188 368.972656 Z M 56.117188 102 " clip-rule="nonzero"/></clipPath></defs><g clip-path="url(#faaa688ce6)"><path fill="#ffffff" d="M 0 0.105469 L 532 0.105469 L 532 492.394531 L 0 492.394531 Z M 0 0.105469 " fill-opacity="1" fill-rule="nonzero"/></g><g clip-path="url(#6c704346da)"><path fill="#dcf1ff" d="M 0 0.105469 L 530.730469 0.105469 L 530.730469 492.378906 L 0 492.378906 Z M 0 0.105469 " fill-opacity="1" fill-rule="nonzero"/></g><g clip-path="url(#d44deb4750)"><path fill="#5c9cee" d="M 56.117188 103.976562 L 56.117188 52.414062 C 56.117188 48.46875 59.296875 45.285156 63.242188 45.285156 L 467.847656 45.285156 C 471.792969 45.285156 474.972656 48.46875 474.972656 52.414062 L 474.972656 103.976562 Z M 56.117188 103.976562 " fill-opacity="1" fill-rule="evenodd"/></g><g clip-path="url(#a3f36e1403)"><path fill="#ddedfc" d="M 467.847656 368.964844 L 63.242188 368.964844 C 59.296875 368.964844 56.117188 365.78125 56.117188 361.894531 L 56.117188 102.621094 L 474.972656 102.621094 L 474.972656 361.894531 C 474.972656 365.78125 471.792969 368.964844 467.847656 368.964844 Z M 467.847656 368.964844 " fill-opacity="1" fill-rule="evenodd"/></g><path fill="#3b566a" d="M 386.621094 140.332031 L 144.46875 140.332031 C 140.523438 140.332031 137.34375 137.152344 137.34375 133.261719 C 137.34375 129.3125 140.523438 126.132812 144.46875 126.132812 L 386.621094 126.132812 C 390.566406 126.132812 393.746094 129.3125 393.746094 133.261719 C 393.746094 137.152344 390.566406 140.332031 386.621094 140.332031 Z M 386.621094 140.332031 " fill-opacity="1" fill-rule="evenodd"/><path fill="#3b566a" d="M 188.117188 197.433594 L 94.34375 197.433594 C 90.398438 197.433594 87.21875 194.25 87.21875 190.300781 L 87.21875 161.25 C 87.21875 157.304688 90.398438 154.121094 94.34375 154.121094 L 188.117188 154.121094 C 192.0625 154.121094 195.246094 157.304688 195.246094 161.25 L 195.246094 190.300781 C 195.246094 194.25 192.0625 197.433594 188.117188 197.433594 Z M 188.117188 197.433594 " fill-opacity="1" fill-rule="evenodd"/><path fill="#3b566a" d="M 312.460938 197.433594 L 218.628906 197.433594 C 214.683594 197.433594 211.5 194.25 211.5 190.300781 L 211.5 161.25 C 211.5 157.304688 214.683594 154.121094 218.628906 154.121094 L 312.460938 154.121094 C 316.40625 154.121094 319.589844 157.304688 319.589844 161.25 L 319.589844 190.300781 C 319.589844 194.25 316.40625 197.433594 312.460938 197.433594 Z M 312.460938 197.433594 " fill-opacity="1" fill-rule="evenodd"/><path fill="#3b566a" d="M 436.804688 197.433594 L 342.972656 197.433594 C 339.027344 197.433594 335.84375 194.25 335.84375 190.300781 L 335.84375 161.25 C 335.84375 157.304688 339.027344 154.121094 342.972656 154.121094 L 436.804688 154.121094 C 440.691406 154.121094 443.871094 157.304688 443.871094 161.25 L 443.871094 190.300781 C 443.871094 194.25 440.691406 197.433594 436.804688 197.433594 Z M 436.804688 197.433594 " fill-opacity="1" fill-rule="evenodd"/><path fill="#ef5350" d="M 294.90625 345.453125 L 254.972656 345.453125 C 251.027344 345.453125 247.785156 342.269531 247.785156 338.324219 L 247.785156 277.746094 C 247.785156 273.800781 251.027344 270.617188 254.972656 270.617188 L 294.90625 270.617188 C 298.855469 270.617188 302.09375 273.800781 302.09375 277.746094 L 302.09375 338.324219 C 302.09375 342.269531 298.855469 345.453125 294.90625 345.453125 Z M 294.90625 345.453125 " fill-opacity="1" fill-rule="evenodd"/><path fill="#ffc107" d="M 364.882812 345.453125 L 324.890625 345.453125 C 320.941406 345.453125 317.761719 342.269531 317.761719 338.324219 L 317.761719 255.0625 C 317.761719 251.113281 320.941406 247.929688 324.890625 247.929688 L 364.882812 247.929688 C 368.832031 247.929688 372.011719 251.113281 372.011719 255.0625 L 372.011719 338.324219 C 372.011719 342.269531 368.832031 345.453125 364.882812 345.453125 Z M 364.882812 345.453125 " fill-opacity="1" fill-rule="evenodd"/><path fill="#5c9cee" d="M 434.859375 345.453125 L 394.867188 345.453125 C 390.917969 345.453125 387.738281 342.269531 387.738281 338.324219 L 387.738281 234.023438 C 387.738281 230.078125 390.917969 226.894531 394.867188 226.894531 L 434.859375 226.894531 C 438.808594 226.894531 441.988281 230.078125 441.988281 234.023438 L 441.988281 338.324219 C 441.988281 342.269531 438.808594 345.453125 434.859375 345.453125 Z M 434.859375 345.453125 " fill-opacity="1" fill-rule="evenodd"/><path fill="#3b566a" d="M 434.859375 345.453125 L 254.972656 345.453125 C 251.027344 345.453125 247.785156 342.269531 247.785156 338.324219 C 247.785156 334.375 251.027344 331.132812 254.972656 331.132812 L 434.859375 331.132812 C 438.808594 331.132812 441.988281 334.375 441.988281 338.324219 C 441.988281 342.269531 438.808594 345.453125 434.859375 345.453125 Z M 434.859375 345.453125 " fill-opacity="1" fill-rule="evenodd"/><path fill="#4fba6f" d="M 153.011719 345.453125 C 117.789062 345.453125 89.101562 316.816406 89.101562 281.519531 C 89.101562 246.28125 117.789062 217.585938 153.011719 217.585938 C 188.234375 217.585938 216.921875 246.28125 216.921875 281.519531 C 216.921875 316.816406 188.234375 345.453125 153.011719 345.453125 Z M 153.011719 345.453125 " fill-opacity="1" fill-rule="evenodd"/><path fill="#ffffff" d="M 153.011719 318.523438 C 132.632812 318.523438 116.019531 301.964844 116.019531 281.519531 C 116.019531 261.128906 132.632812 244.511719 153.011719 244.511719 C 173.390625 244.511719 190.003906 261.128906 190.003906 281.519531 C 190.003906 301.964844 173.390625 318.523438 153.011719 318.523438 Z M 153.011719 318.523438 " fill-opacity="1" fill-rule="evenodd"/><path fill="#ffc107" d="M 198.191406 326.714844 C 209.734375 315.164062 216.921875 299.136719 216.921875 281.519531 C 216.921875 246.28125 188.234375 217.585938 153.011719 217.585938 L 153.011719 244.511719 C 173.390625 244.511719 190.003906 261.128906 190.003906 281.519531 C 190.003906 291.714844 185.878906 301.023438 179.164062 307.683594 Z M 198.191406 326.714844 " fill-opacity="1" fill-rule="evenodd"/><path fill="#ef5350" d="M 198.191406 326.714844 L 179.164062 307.683594 C 172.449219 314.398438 163.203125 318.523438 153.011719 318.523438 C 132.632812 318.523438 116.019531 301.964844 116.019531 281.519531 L 89.101562 281.519531 C 89.101562 316.816406 117.789062 345.453125 153.011719 345.453125 C 170.625 345.453125 186.585938 338.324219 198.191406 326.714844 Z M 198.191406 326.714844 " fill-opacity="1" fill-rule="evenodd"/><path fill="#3d669d" d="M 111.660156 86.652344 L 92.695312 86.652344 C 86.097656 86.652344 80.679688 81.289062 80.679688 74.628906 C 80.679688 67.972656 86.097656 62.609375 92.695312 62.609375 L 111.660156 62.609375 C 118.316406 62.609375 123.679688 67.972656 123.679688 74.628906 C 123.679688 81.289062 118.316406 86.652344 111.660156 86.652344 Z M 159.3125 86.652344 L 140.347656 86.652344 C 133.691406 86.652344 128.332031 81.289062 128.332031 74.628906 C 128.332031 67.972656 133.691406 62.609375 140.347656 62.609375 L 159.3125 62.609375 C 165.910156 62.609375 171.332031 67.972656 171.332031 74.628906 C 171.332031 81.289062 165.910156 86.652344 159.3125 86.652344 Z M 206.90625 86.652344 L 187.941406 86.652344 C 181.34375 86.652344 175.925781 81.289062 175.925781 74.628906 C 175.925781 67.972656 181.34375 62.609375 187.941406 62.609375 L 206.90625 62.609375 C 213.5625 62.609375 218.921875 67.972656 218.921875 74.628906 C 218.921875 81.289062 213.5625 86.652344 206.90625 86.652344 Z M 206.90625 86.652344 " fill-opacity="1" fill-rule="evenodd"/><path fill="#ffc107" d="M 111.660156 81.761719 L 92.695312 81.761719 C 88.808594 81.761719 85.625 78.578125 85.625 74.628906 C 85.625 70.683594 88.808594 67.5 92.695312 67.5 L 111.660156 67.5 C 115.609375 67.5 118.789062 70.683594 118.789062 74.628906 C 118.789062 78.578125 115.609375 81.761719 111.660156 81.761719 Z M 111.660156 81.761719 " fill-opacity="1" fill-rule="evenodd"/><path fill="#ef5350" d="M 159.3125 81.761719 L 140.347656 81.761719 C 136.402344 81.761719 133.21875 78.578125 133.21875 74.628906 C 133.21875 70.683594 136.402344 67.5 140.347656 67.5 L 159.3125 67.5 C 163.203125 67.5 166.382812 70.683594 166.382812 74.628906 C 166.382812 78.578125 163.203125 81.761719 159.3125 81.761719 Z M 159.3125 81.761719 " fill-opacity="1" fill-rule="evenodd"/><path fill="#4fba6f" d="M 206.90625 81.761719 L 187.941406 81.761719 C 184.054688 81.761719 180.871094 78.578125 180.871094 74.628906 C 180.871094 70.683594 184.054688 67.5 187.941406 67.5 L 206.90625 67.5 C 210.855469 67.5 214.035156 70.683594 214.035156 74.628906 C 214.035156 78.578125 210.855469 81.761719 206.90625 81.761719 Z M 206.90625 81.761719 " fill-opacity="1" fill-rule="evenodd"/></svg>