<?xml version="1.0" encoding="UTF-8" standalone="no"?>
<svg
   xmlns:dc="http://purl.org/dc/elements/1.1/"
   xmlns:cc="http://creativecommons.org/ns#"
   xmlns:rdf="http://www.w3.org/1999/02/22-rdf-syntax-ns#"
   xmlns:svg="http://www.w3.org/2000/svg"
   xmlns="http://www.w3.org/2000/svg"
   viewBox="0 0 996.08002 1278.4268"
   height="1278.4268"
   width="996.08002"
   xml:space="preserve"
   id="svg2"
   version="1.1"><metadata
     id="metadata8"><rdf:RDF><cc:Work
         rdf:about=""><dc:format>image/svg+xml</dc:format><dc:type
           rdf:resource="http://purl.org/dc/dcmitype/StillImage" /></cc:Work></rdf:RDF></metadata><defs
     id="defs6" /><g
     transform="matrix(1.3333333,0,0,-1.3333333,0,1278.4267)"
     id="g10"><g
       transform="scale(0.1)"
       id="g12"><path
         id="path14"
         style="fill:#2e3591;fill-opacity:1;fill-rule:nonzero;stroke:none"
         d="m 3577.67,9531.61 c -543.4,-19.4 -1081.1,-166.3 -1562.2,-419.1 -505.6,-267.5 -948.3,-653.5 -1279.798,-1119.8 C 391.57,7513.51 167.172,6949.21 87.9688,6364.61 -13.1289,5641.21 105.969,4887.4 432.469,4233.31 760.57,3564.3 1299.57,3001.91 1951.57,2641.8 c 387.6,-214.49 814.2,-358.09 1252.8,-420.79 450.4,-63.81 912.8,-45.71 1356.2,56.79 585.7,134.31 1136.3,416.7 1588.4,812.41 442.5,385.49 791.4,878.3 1005.3,1424.89 316.5,798.1 337.9,1708.21 61.7,2520.91 -248.3,739.59 -740.7,1393.8 -1381.3,1838.7 -652.9,459.2 -1459.8,694.09 -2257,656.9 z m -99.8,49.3 c 248.7,13.5 499,9.59 746.1,-24 473.4,-61.9 934.6,-216.8 1349.3,-453.41 643.6,-364.7 1174.6,-925.2 1501.8,-1588.89 375.2,-747.81 480.4,-1624.71 303.7,-2441.61 -128.8,-605.4 -414.1,-1176.2 -818.4,-1644.69 -391.1,-456.2 -894.7,-814.91 -1453.3,-1036.51 -808.1,-322.1 -1729.6,-347.99 -2554.4,-71.59 C 1840.07,2554.9 1204.07,3013.4 752.871,3612.4 506.668,3936.1 315.77,4301.31 187.672,4687.2 4.37109,5237.6 -43.6328,5830.81 39.168,6404.41 c 91.902,636.6 354.699,1247.1 752.102,1752.7 397.5,508 928.3,911.5 1525.8,1155.1 369.1,151.5 762.9,242 1160.8,268.7" /><path
         id="path16"
         style="fill:#2e3591;fill-opacity:1;fill-rule:nonzero;stroke:none"
         d="m 3908.47,6955.01 c -16.8,-313.91 -30.3,-627.9 -46.2,-941.9 129.2,38.5 238.4,135.2 297.4,255.8 68.5,134 70.7,300 5,435.5 -50.9,111.09 -144,202.1 -256.2,250.6 z m -667.1,-266.81 c -44,-106.09 -53,-227.5 -18.9,-337.7 45.2,-158.1 173.3,-290 330.6,-338.5 -1.5,174.1 -11.7,348.01 -16.5,522.11 -9.2,141.1 -7.8,282.69 -17.6,423.69 -125.9,-43.69 -225,-148.89 -277.6,-269.6 z m 504.7,1479.01 c 5.5,-77.9 23.6,-154.4 26.5,-232.6 20.9,-214.5 10,-430.8 -18,-644.01 38.8,28.71 73.3,63.41 100.6,103.31 71.9,104.39 90,236.59 81.3,360.6 -13.7,154.7 -98.1,292.1 -190.4,412.7 z m -119.3,-165.1 c -54.4,-100.9 -126.5,-196.51 -146.6,-311.9 -7.5,-74.8 -3.5,-152.7 26.6,-222.5 37.2,-87.3 117,-145.9 196.9,-191.6 48.9,294.2 35.2,595.4 -5.8,889.69 -23,-54.79 -40.8,-112.19 -71.1,-163.69 z m 70.1,303.69 c 34.7,-51.39 67.6,-104.09 104.9,-153.69 83.9,-116.9 165.9,-243.71 180.8,-390.5 0.5,-53.1 -0.7,-106.2 -3.3,-159.2 -0.8,-15.9 -1.9,-31.81 -5.2,-47.4 -16.9,-48.7 -29.9,-99.51 -56.5,-144.21 -23.6,-42.29 -56.7,-78.19 -92.1,-110.79 30.7,-3.8 70.4,9.8 95.2,-8.5 4.1,-45.71 -2.5,-91.6 -1.6,-137.4 77.8,-24 148.7,-65.2 215.2,-111.5 34.6,34 68.8,68.5 103.1,102.89 45.2,-35.59 84.3,-78.19 122.3,-121.09 -32.3,-37.5 -68.9,-71.01 -102.2,-107.61 74.9,-98.4 123.9,-215.49 140.2,-338.2 49.8,0.41 99.5,0.21 149.2,-1.8 2.1,-56.79 1.4,-113.6 -2,-170.29 -49.3,-1.01 -98.5,-0.1 -147.7,-1.61 -15.6,-123.69 -67.2,-239.69 -139.8,-340.29 34.2,-35.31 70.4,-69 100.8,-107.9 -38.6,-41.1 -77.8,-82.01 -122,-117.21 -34.1,33.81 -67.2,68.61 -101.4,102.3 -84.7,-60.29 -179,-107.59 -281.1,-129.89 -7.9,-91.41 -6.1,-183.51 -18.1,-274.51 -86.6,0.11 -173.2,0 -259.8,0.4 -10,90.91 -5.5,182.5 -14.3,273.51 -100.3,25.3 -197.1,67.2 -279.1,131 -39.7,-32.01 -73.6,-70.51 -114.9,-100.51 -39.5,39.21 -79.1,78.61 -113.7,122.31 32.6,35.5 68.2,67.89 103,101.3 -72.8,99.8 -125.5,215.6 -139.1,339.29 -49.9,4.11 -100,5 -150,5.51 -3.6,56.99 0.7,114 2.4,170.89 49.2,1.81 98.4,-1.4 147.6,1.3 15,110.4 55.5,217.41 120.7,308.01 5.6,11.59 22.2,24.89 9.6,37.59 -28.8,36.5 -63.1,68.31 -90.5,105.91 39.1,36.59 76.5,75.5 119.2,107.9 42.9,-17.9 67.7,-65.8 100.9,-98 74,45.7 148.4,92.5 233.2,115.9 -0.5,46.5 -1.6,93.1 -1.3,139.6 28.1,0.9 56.3,1.1 84.6,1.1 -37.2,30.6 -74.7,62.2 -101.2,102.89 -29.8,42.91 -43.8,93.91 -58,143.41 -2.9,14.7 -4.3,29.6 -4.4,44.5 2.5,51.79 -1.4,106 18.7,154.8 18.4,41.5 41.4,80.8 59.2,122.6 31.5,74.2 78.6,140.4 112.5,213.5 35.7,70.6 59.6,146.4 76,223.69" /><path
         id="path18"
         style="fill:#2e3591;fill-opacity:1;fill-rule:nonzero;stroke:none"
         d="m 1091.07,8238.61 c 10.1,12.9 28.9,7.6 43,9.49 237.7,-1.79 475.5,1.61 713.2,-1.69 -15.9,-15.71 -32.8,-30.51 -50.2,-44.5 -543,-448.81 -923.703,-1091.21 -1048.5,-1785.2 -99.8,-537.7 -50.898,-1102.6 142.598,-1614.31 122.302,-325.69 300.902,-630.09 526.302,-895.09 240.6,-286.5 536.4,-525.7 863.7,-706.3 375.3,-206.4 795.4,-330.91 1222.5,-362.5 439.1,-32.3 885.9,29.6 1297.2,187.7 701.7,263.89 1295.5,799.29 1633.8,1468 213.6,419.19 328.9,889.3 327.5,1360.09 5.2,412.41 -80.8,824.81 -242.7,1203.8 -174.6,407.4 -439.6,775.81 -770,1071.21 -41.7,42 -92.7,73.5 -133.4,116.59 249,3.61 498.2,1.61 747.3,1.11 246.9,-276.9 454.5,-589.7 605.5,-928.91 351.6,-775.5 406.7,-1679.7 154.4,-2492.8 -175.9,-576.29 -503.7,-1104.69 -938.5,-1521.49 -453.5,-436.41 -1024.5,-751.1 -1637.6,-895.1 -757.9,-181.2 -1575.6,-102.61 -2283.6,223.89 -697.6,317.01 -1286.101,867.01 -1650.8,1540.71 -214.598,392.39 -352.399,826.3 -405.301,1270.29 -84.199,694.11 41.801,1412.71 362.203,2034.7 140,274.61 316.496,530.21 521.398,760.31" /><path
         id="path20"
         style="fill:#2e3591;fill-opacity:1;fill-rule:nonzero;stroke:none"
         d="m 1610.77,1457.71 c 95.9,35.89 200.3,39.6 301.4,31.59 116.1,-12.19 233.9,-55.59 313.5,-144.09 98.7,-99.91 135.2,-244.6 135.6,-381.499 -120.6,-2 -241.4,-2.809 -361.9,0.59 0.2,70.399 -9.9,145.109 -50.7,204.299 -39.3,58.6 -126.2,73.6 -185,36.61 -43.1,-25.71 -64.9,-74.6 -79.8,-120.51 -24.8,-87.79 -30.3,-179.688 -33.3,-270.591 -0.5,-128.609 -2.7,-258.41 20.5,-385.507 12.1,-61.493 44.7,-127.7 107.2,-150.403 68.2,-24.687 158.4,-13.297 201.7,50.313 44.5,66.898 41,150.699 46.6,227.5 111.7,-6 222.7,-20.91 334.5,-26.203 1.8,-147.809 -46.4,-302.7 -159.3,-403.098 C 2098.87,30.2109 1952.67,-5.19141 1814.67,0.609375 1680.17,-1.48828 1542.17,39.6094 1441.67,131.41 c -129.3,117.891 -182.8,294.492 -200.6,463.602 -15.5,187.699 -9.2,383.187 64.1,559.398 54.7,136.6 163.8,256.29 305.6,303.3" /><path
         id="path22"
         style="fill:#2e3591;fill-opacity:1;fill-rule:nonzero;stroke:none"
         d="m 2.16797,1465.61 c 128.20303,0.6 256.40203,0.2 384.69903,0 1.305,-185.8 -0.398,-371.7 0.805,-557.61 100.996,0.402 202.098,0.602 303.098,0.109 -0.5,185.801 -0.899,371.501 0.398,557.191 128.199,-0.4 256.602,3.21 384.802,-1.99 1.1,-446.31 0,-892.701 0.5,-1339.099 0.4,-32.3008 0.2,-64.711 -1.6,-97.211 C 947.27,27.1094 819.672,27.8008 692.172,26.8008 688.27,223 691.27,419.301 690.77,615.5 c -101,2.699 -202.2,2.012 -303.301,0.199 -1.5,-196.199 1.699,-392.386 -1.5,-588.5896 C 258.469,27.1992 130.867,27.5117 3.36719,27 0.46875,506.512 2.76953,986.012 2.16797,1465.61" /><path
         id="path24"
         style="fill:#2e3591;fill-opacity:1;fill-rule:nonzero;stroke:none"
         d="m 2505.67,1465.1 c 152.9,1.61 305.8,0 458.7,0.91 27.7,0.5 55.5,-0.51 83.1,-3.5 52.7,-264.2 108.4,-527.811 162.6,-791.608 4.2,7.809 7.9,15.899 10.9,24.11 61.6,256 124.8,511.698 186.4,767.788 176,7.21 352.4,0.4 528.5,3.41 0.8,-397.3 0.2,-794.698 0.3,-1191.999 -1.2,-82.211 2.8,-164.512 -2.1,-246.6993 -126,0.0899 -252.1,-1.5 -378,0.5977 l -6.7,6 c -1.2,347.2036 0,694.4926 -0.4,1041.5906 -93.4,-348.098 -177.7,-698.989 -268.3,-1047.9891 -77.4,-1 -154.8,-0.6015 -232.2,-0.1093 -80.2,359.1994 -159,718.7114 -240.1,1077.6084 -4.8,-110.198 -0.9,-220.71 -2.6,-330.999 -5.8,-248.91 -2.1,-498 -4.4,-747.0118 -98.4,0 -196.8,0.1094 -295.1,0 -1.2,479.3128 0,958.6138 -0.6,1437.9008" /><path
         id="path26"
         style="fill:#2e3591;fill-opacity:1;fill-rule:nonzero;stroke:none"
         d="m 4127.37,1463.11 c 128.2,4.6 256.8,4 385.1,0.29 -0.3,-333.19 -0.8,-666.4 0.2,-999.49 2.4,-59.801 11.2,-130.308 64.6,-167.301 68,-49.808 184.2,-41.707 228.5,36.102 26,49.398 32.5,106.59 32,161.5 -0.6,322.988 0.3,645.999 -0.6,968.899 106.9,5.9 214.1,1.19 321.1,2.7 3.3,-327.1 0.6,-654.4 1.3,-981.509 0.5,-123.602 -27.5,-256.899 -117.9,-347.102 C 4937.47,29.4102 4779.17,-2.08984 4634.47,0.609375 4506.27,-1.39844 4368.07,20.8125 4268.77,108.402 c -101.6,86.899 -140.8,225.707 -141.1,355.411 -0.4,333.097 0,666.197 -0.3,999.297" /><path
         id="path28"
         style="fill:#2e3591;fill-opacity:1;fill-rule:nonzero;stroke:none"
         d="m 5248.37,1463.4 c 357.9,4.91 716.1,2.1 1074.1,1.41 0.8,-92.81 0.8,-185.6 0,-278.4 -113.8,-1.2 -227.5,0.2 -341.3,-0.91 -0.3,-386 0.3,-771.988 -0.2,-1157.9883 -128.3,-0.5117 -256.7,-0.3125 -385,-0.1094 -4,385.9107 -1.4,772.0977 -3,1158.2077 -114.9,1.19 -229.8,-0.71 -344.6,0.9 0.1,92.3 0.2,184.59 0,276.89" /><path
         id="path30"
         style="fill:#2e3591;fill-opacity:1;fill-rule:nonzero;stroke:none"
         d="m 6511.07,1465.81 c 271.2,-0.2 542.3,0.09 813.4,-0.11 48.7,-0.29 97.5,2.01 146.1,-3.1 -1.1,-92.1 -1.3,-184.2 0,-276.29 -191.1,-1.81 -382.2,1.4 -573.2,-1.5 0.6,-96 -0.2,-192.009 0.1,-288.009 128,-1.301 256.1,1.398 384.2,-1.301 -0.3,-92.898 -0.3,-185.801 0,-278.789 -128.1,-0.609 -256.2,2.199 -384.2,-1.211 -0.9,-98.988 0.5,-197.988 0.3,-296.898 190.5,0.211 381,0 571.5,0.109 0.4,-94.801 1.3,-189.699 0.1,-284.5001 -11.2,-12.2109 -30.3,-4.9101 -44.7,-7.5 -293.4,0.8907 -586.8,0.6914 -880.2,0.1993 -12.8,0.8007 -38.3,-4.6016 -34.1,16.9023 0.3,473.9885 -1.1,948.0975 0.7,1421.9975" /><path
         id="path32"
         style="fill:#ec1c27;fill-opacity:1;fill-rule:nonzero;stroke:none"
         d="m 3260.17,8338.4 c -15.7,-71.69 -31.8,-146.99 -11.4,-219.59 24.1,-6.6 52.5,-10.41 65.1,-35.3 26.1,-45 31.3,-98.8 36.5,-149.7 8,39.8 11.1,80.2 15.6,120.4 4.8,73.89 -32.9,139.6 -56,207.3 -18.5,50.6 -9.1,105 -13.5,157.5 -23,-20.81 -28.3,-52.1 -36.3,-80.61 z m 217.8,895.01 c 15.1,74.1 88.4,116.3 153.6,141.7 -30.9,-39.4 -79.8,-80 -62.2,-136.2 23.8,-41.7 65.3,-68.7 99.9,-100.61 44.2,-40.79 101.2,-75.69 119.1,-136.8 26.2,-88.99 -20.7,-177.59 -17.6,-267.19 21.2,52.1 33,109.8 69.8,153.99 26.2,30.2 57,55.81 86.3,82.81 -1,-36.3 -14.1,-70.8 -16.3,-107 -6,-84.5 28.3,-164.3 39.1,-247.1 5.3,0.4 16,1.2 21.4,1.6 20.5,27.6 33.9,59.89 37.3,94.3 6.1,38.8 11.5,88 53.5,104.5 0.1,-52.7 -7.8,-106.3 5.2,-158.2 27.1,-133.8 96.4,-253.31 141.2,-381.21 25.2,-68.59 42,-143.39 26.1,-216.19 -24.6,-84.2 -70.6,-162.5 -134.2,-223.2 -33.9,-32.5 -69.5,-67.91 -117.6,-77 -14.9,146.79 -96.9,273.6 -180.8,390.5 -10.9,64.1 -21.1,131.7 -0.8,195 11.5,40.89 36.1,81.19 26.3,125.2 -19.8,98.39 -87.9,176.1 -137.8,260.2 4.6,-62.4 0.7,-125.9 -17.9,-185.9 -27.4,-99.5 -89.9,-187.8 -99.7,-292.2 -3.2,-61.31 23.6,-118.3 49,-172.3 -33.9,-73.1 -81,-139.3 -112.5,-213.5 -17.8,-41.8 -40.8,-81.1 -59.2,-122.6 -8,25.8 -34.7,34.4 -55,48 -124.4,76.59 -221.8,210.4 -223.8,360.2 6.1,139.8 89.4,261.39 104.2,399.6 11.9,70.6 0.4,142.3 -15.8,211.2 4,1.2 12,3.49 16,4.7 37.4,-22.2 76.1,-50.1 89,-94 21.7,-72.6 22.9,-149.4 42.9,-222.41 32.1,116.21 -8.7,240.91 35,354.91 14.2,46.4 49,83.09 88.6,109.5 21.9,16.4 53.9,34.2 49,66.4 -17.7,89.39 -115.2,151.6 -101.3,249.3" /><path
         id="path34"
         style="fill:#ec1c27;fill-opacity:1;fill-rule:nonzero;stroke:none"
         d="m 5586.67,6985.01 c -37.5,-72.1 -66.6,-148.01 -101.7,-221.2 -182.4,-397.8 -363,-796.3 -544.4,-1194.51 -15.9,-35 -33.9,-69.09 -45,-105.99 30.6,41.39 47.8,90.8 73.1,135.4 226.5,448.49 451.7,897.6 674.9,1347.7 -15.5,17.7 -33.8,32.7 -56.9,38.6 z m -3772.1,9.6 c 7.1,-15.9 14.5,-31.7 22.5,-47.3 223,-433.71 445.1,-868.01 670,-1300.8 5.5,-8.71 11.6,-17.01 18.3,-25 -5.9,23.79 -15.8,46.29 -26.3,68.19 -150.6,319.21 -300.7,638.61 -451.6,957.61 -62.1,124.1 -114.4,253.3 -181.6,374.69 -17.2,-8.89 -34.3,-18.19 -51.3,-27.39 z m 3672.2,149.1 c -92.3,-216.51 -177.8,-435.91 -268.5,-653.01 -160.6,-396.49 -324.3,-791.89 -484.7,-1188.39 -1.2,-7.81 -3.6,-23.5 -4.8,-31.3 32.2,6.7 39,41.9 52.6,66.79 260.2,572.61 521.5,1144.71 782.6,1716.91 3.9,11.09 10.4,23 7,35.1 -24.4,23.1 -53.9,40 -84.2,53.9 z m -3592.3,-10.1 c -12.1,-7.91 -15.1,-23.2 -6.3,-34.9 105.5,-224.8 212.4,-448.9 318,-673.7 176.3,-369.8 348,-741.81 526.6,-1110.4 -13.4,49.6 -36.7,95.4 -55.5,142.99 -233.3,574.6 -472.3,1146.9 -705.1,1721.71 -25.9,-15.3 -53.4,-28 -77.7,-45.7 z m 2084.8,468.8 c 372.1,80 770.4,87.6 1131.6,-45.2 150.7,-55.4 292,-137.7 414,-242.2 39.1,-30.7 -5.8,-79.7 -17.3,-114.41 34.5,-41.59 89.7,-58.89 125.5,-97.89 -3.2,-23.9 -13,-46.1 -20.4,-68.8 28.4,-22.6 61.2,-39.3 88.2,-63.81 2.5,-11.59 -2,-23.19 -6.6,-33.69 -295.2,-590.4 -592,-1180 -886.1,-1770.91 -142.6,56.3 -283.2,118.41 -429.4,165.2 -248.2,86.7 -511.2,136.41 -774.6,129.4 -248.5,-8.3 -493.1,-68.69 -724.3,-158.69 -70.9,-24.41 -137.1,-60.2 -207.9,-84.9 -300.5,584.59 -601.7,1168.79 -901.6,1753.7 -5.7,15.29 -20.6,31.99 -11.5,48.7 27.8,17.5 57.7,31.2 85.4,48.9 -9.2,26 -19.7,51.6 -27.6,78.09 44.2,26.21 88.4,52.61 135,74.31 -9.3,32.3 -25.5,62.1 -34.6,94.4 -5.7,14.4 7,23 16.7,30.6 272.5,201.7 615.3,288.19 950.7,292.5 182.9,2.6 366.1,-13.4 546,-46.5 0.1,-14.9 1.5,-29.8 4.4,-44.5 -97.4,3.7 -192.5,28.7 -289.8,32.9 -328.3,30.7 -669.1,-5.4 -970.1,-146.1 -71.7,-34.9 -139.3,-77.4 -205.8,-121.3 271,-655.21 537.8,-1312.2 809,-1967.31 99.7,33.21 196.9,74.31 299.8,97.41 311.3,83.39 640.4,88.19 957.3,35.69 187.6,-29.4 370.8,-82.3 549.3,-146.29 30.3,-10.9 60.9,-20.9 92,-29.51 66.4,143.1 118.9,292.3 182.2,436.81 154,382.79 313.8,763.3 467.2,1146.29 55.6,131.9 106.9,265.6 164,396.91 -253.7,214.2 -586.6,315.99 -914.9,327.4 -93.5,0.4 -187.5,3.59 -280.5,-8.81 -107.9,-7.19 -213.6,-31.29 -320.5,-45.79 3.3,15.59 4.4,31.5 5.2,47.4" /><path
         id="path36"
         style="fill:#ec1c27;fill-opacity:1;fill-rule:nonzero;stroke:none"
         d="m 1688.87,6617.2 c 38.7,17.61 87.6,10.4 115.2,-23.09 19.2,-19.41 15.6,-49.41 12.4,-74.21 -30.6,-68.8 -112.2,-80.99 -174.8,-106.09 -207.1,-82.6 -415.9,-160.7 -623.6,-242.01 -37.203,-16.39 -84.3,-18.8 -115.8,10.8 -29.801,17.9 -25.7,56.9 -20.801,86.41 25.199,57.5 91.898,70.69 144.001,93.1 221.9,83.1 441.3,172.7 663.4,255.09" /><path
         id="path38"
         style="fill:#ec1c27;fill-opacity:1;fill-rule:nonzero;stroke:none"
         d="m 5708.57,6619.21 c 41.4,20 84.7,-4 123.5,-18.8 211.8,-83.01 424.4,-164 636.7,-246 42.6,-17.61 98.8,-27.21 118.7,-74.6 17.5,-32.61 12.5,-77.7 -18.9,-100 -27.3,-25.2 -68.7,-24.8 -101.6,-12.3 -247.8,96.7 -496.1,192.19 -744.5,287.1 -37.3,17.99 -72.2,54.8 -65.2,99.5 -3.4,31.99 24.4,54.7 51.3,65.1" /><path
         id="path40"
         style="fill:#ec1c27;fill-opacity:1;fill-rule:nonzero;stroke:none"
         d="m 1817.27,6373.31 c 55.4,20.8 127.2,-8.7 140,-69.3 4.2,-41.61 -18.1,-86.81 -56,-106.01 -55,-28.59 -114.6,-46.49 -172.5,-68.3 -213.3,-84.09 -428.6,-162.79 -642.5,-245.49 -48.6,-20.61 -103,-38 -155.403,-21.3 -26.898,17.99 -53.496,46.7 -51.297,81.2 -0.703,53.49 46.102,94.9 93.7,110.59 281.9,104.8 561.8,214.8 844,318.61" /><path
         id="path42"
         style="fill:#ec1c27;fill-opacity:1;fill-rule:nonzero;stroke:none"
         d="m 5577.77,6371.91 c 42.8,18.39 88.8,-0.7 129.5,-15.81 240.9,-91.8 482.1,-182.79 722.8,-275.2 47.9,-20.2 103.9,-30.49 140.2,-70.6 26.8,-26.19 24,-67.39 18.3,-101.29 -28.8,-58.51 -103.6,-62.8 -157.5,-40.3 -276.8,103.6 -552.5,210.2 -829.1,314.49 -47.9,14.6 -88.8,58.11 -83,110.91 -5.3,37.89 27.4,64.6 58.8,77.8" /><path
         id="path44"
         style="fill:#ec1c27;fill-opacity:1;fill-rule:nonzero;stroke:none"
         d="m 1899.27,6096.31 c 43.7,9.3 96.7,7.4 127.2,-30.21 48.3,-49.39 18.5,-135.4 -39.4,-163.1 -70.2,-32.79 -145.3,-53.59 -216.2,-85 -234.6,-86.49 -468,-176.79 -701.6,-266.29 -45.7,-17.6 -106,-23.8 -144.301,12.79 -40.699,30.6 -40.297,93.9 -13.699,133.61 28.5,34.8 71.902,51.59 113.1,66.5 64.7,22.3 127.6,49.1 191,74.8 229.4,81.69 455.4,172.79 683.9,256.9" /><path
         id="path46"
         style="fill:#ec1c27;fill-opacity:1;fill-rule:nonzero;stroke:none"
         d="m 5498.47,6097.91 c 28.3,4.4 58.3,4.8 85.8,-4.8 297.2,-112.61 594.5,-224.91 891.4,-338.01 49.7,-15.69 101.2,-53.79 105.1,-109.8 8.6,-55.49 -42.3,-106.39 -96.4,-106.79 -44.9,-4.6 -85.8,16.99 -126.4,32.3 -267.5,102.39 -535.8,202.7 -803.4,304.89 -44.3,16.9 -98.4,30.91 -118,79.6 -29.8,54.71 0.4,128.3 61.9,142.61" /><path
         id="path48"
         style="fill:#ec1c27;fill-opacity:1;fill-rule:nonzero;stroke:none"
         d="m 2008.57,5816.71 c 39.4,6.89 85.4,7.7 115.9,-22.41 46.4,-33.89 49.3,-109.69 9.8,-149.8 -28.3,-32.7 -70.1,-47.59 -109.4,-62.3 -303.9,-114.89 -607.8,-229.29 -911.1,-345.49 -55.1,-19.51 -129.098,-9.31 -159,46.29 -27,59.2 4.8,130.4 62.5,157.01 120.3,52.59 246.4,90.89 367.4,141.99 208.8,75.91 415,159.21 623.9,234.71" /><path
         id="path50"
         style="fill:#ec1c27;fill-opacity:1;fill-rule:nonzero;stroke:none"
         d="m 5388.97,5816.41 c 28.7,5.59 59.5,6.19 87.8,-2.3 320.4,-122.2 641.6,-242.5 961.5,-365.91 31.2,-12.79 61.2,-32.59 77.7,-63.1 23,-38.89 21.1,-96.29 -16.2,-125.99 -41.9,-39.5 -106.7,-37.8 -156.6,-15.71 -109,44.31 -220.2,82.61 -329.1,126.9 -201.8,70 -399.2,151.9 -599.6,225.6 -40.6,14.2 -79.2,42.3 -93.6,84.31 -23.9,53.39 10.9,122.9 68.1,136.2" /><path
         id="path52"
         style="fill:#ec1c27;fill-opacity:1;fill-rule:nonzero;stroke:none"
         d="m 2130.47,5537.4 c 64.1,27.5 153.7,0.71 176.1,-69.8 20.7,-66.29 -27,-134.09 -88.3,-157.19 -149.2,-58.8 -299.9,-113.7 -449.5,-171.6 -68.7,-24 -135.1,-54.9 -205.3,-74.7 -1.3,-3.7 -3.8,-11.2 -5.1,-14.9 206.6,56.8 413.2,113.7 616.3,181.8 24.1,8.8 50.3,12.9 75.6,6.5 204.6,-48.4 407.4,-109.6 596.9,-202.01 104.8,-54.89 210.2,-121.59 275.3,-223.3 34,-50.49 45.2,-111.9 48.8,-171.7 7.5,-71.9 9.1,-144.6 2.1,-216.59 -8.3,-201.51 -36.5,-401.6 -64.4,-601.11 -40,-276.99 -90.5,-552.3 -139.8,-827.7 -75.5,10.51 -145.3,43.71 -217.3,67.01 -154.3,59.1 -304.9,128.3 -448.1,210.89 -143.8,76.11 -277.3,169.4 -414.7,256.11 -1.8,65.9 10.8,130.7 17.8,195.9 7.3,81.79 20.5,162.79 25.9,244.69 14.1,102.5 18.6,206.31 40.7,307.5 9.7,41.51 20.6,85.6 50.8,117.41 47.4,48.3 110.8,83.5 180.2,81.6 144.7,-6 278.4,-71.2 421.3,-89.1 -54.9,34.2 -118.3,50.69 -177.9,74.3 -413.3,159.4 -846.2,262.19 -1256.9,428.8 -52.9,24.09 -119.2,5.2 -165.6,45.69 -44.8,43.01 -39.698,121.7 3.1,164.51 37.1,41.3 93.1,54.29 142.9,73.7 320.2,119.8 639,243.29 959.1,363.29" /><path
         id="path54"
         style="fill:#ec1c27;fill-opacity:1;fill-rule:nonzero;stroke:none"
         d="m 5195.67,5513 c 41.2,35.2 101.9,44.4 151.8,22.9 331.4,-123.99 661.4,-251.79 992.9,-375.49 37.3,-13.1 75.4,-28.21 103.9,-56.81 47.6,-42.09 51.1,-127.99 0.6,-169.39 -39.6,-35.9 -97,-24.31 -144.8,-37.7 -467.8,-192.3 -966.5,-298.6 -1431.7,-497.91 -3.9,-2.79 -11.6,-8.5 -15.5,-11.29 139.4,18.9 270.7,79.89 411.8,89.4 93.2,0.49 193.9,-55.9 219.3,-150.1 29.3,-108.61 30.7,-221.91 44.1,-333.01 14,-156.69 33.4,-312.9 49,-469.49 -38.7,-29.9 -79.6,-56.8 -122.2,-80.8 -186.8,-118.01 -379.6,-227.5 -582.6,-315.31 -120.3,-48.7 -239.7,-102.19 -366,-133.59 -78.4,430.89 -158.9,862.39 -196.8,1299.1 -12.4,103.29 -11.1,207.5 -9.6,311.3 2.6,74.8 15.4,152.99 57.6,216.4 63.9,100.5 171.2,159.89 272.8,215.7 186.7,91.4 387.2,150.89 588.7,199.8 51.7,14.3 100.8,-14.31 149.2,-28.4 169.1,-52.1 339.2,-100.71 509.4,-149.3 14.6,-4.6 30.1,-6.9 45.6,-5.61 -213.5,89.71 -433.4,163.21 -648.4,249.31 -44.8,17.19 -91.7,46.3 -105.1,95.49 -16.2,38.91 -3.7,85.91 26,114.8" /></g></g></svg>